<svg width="141" height="130" viewBox="0 0 141 130" fill="none" xmlns="http://www.w3.org/2000/svg">
<path d="M12.864 90.44C12.864 91.1653 12.5867 91.8053 12.032 92.36C11.4773 92.9147 10.7947 93.192 9.984 93.192C8.704 93.192 7.76533 92.9573 7.168 92.488C6.57067 91.976 6.272 91.0587 6.272 89.736C6.272 88.1573 6.22933 86.088 6.144 83.528C6.05867 81.3947 6.016 79.6027 6.016 78.152C6.016 77.4693 6.05867 76.5733 6.144 75.464C6.22933 74.44 6.272 73.672 6.272 73.16C6.144 72.3493 5.824 71.688 5.312 71.176C4.8 70.6213 4.13867 70.344 3.328 70.344C2.944 70.344 2.624 70.1733 2.368 69.832C2.112 69.448 1.984 69.064 1.984 68.68C1.984 67.6987 2.368 66.952 3.136 66.44C3.94667 65.928 4.90667 65.672 6.016 65.672C8.32 65.672 9.92 67.0373 10.816 69.768C11.9253 68.488 13.184 67.464 14.592 66.696C16.0427 65.8853 17.4293 65.48 18.752 65.48C20.3307 65.48 21.76 65.9067 23.04 66.76C24.3627 67.6133 25.024 68.7653 25.024 70.216C25.024 71.0267 24.6613 71.8587 23.936 72.712C23.2533 73.5653 22.5493 73.992 21.824 73.992C21.44 73.992 21.0987 73.9067 20.8 73.736C20.544 73.5227 20.224 73.224 19.84 72.84C19.4133 72.4133 19.0507 72.1147 18.752 71.944C18.4533 71.7307 18.112 71.624 17.728 71.624C17.0453 71.624 16.4053 71.7307 15.808 71.944C15.2107 72.1573 14.8053 72.4133 14.592 72.712C13.9093 73.7787 13.3973 74.7387 13.056 75.592C12.7573 76.4453 12.608 77.3627 12.608 78.344C12.608 79.0693 12.5867 79.6453 12.544 80.072L12.48 83.72C12.48 84.2747 12.5013 84.8933 12.544 85.576C12.5867 86.2587 12.6293 86.7707 12.672 87.112C12.8 88.264 12.864 89.3733 12.864 90.44ZM28.3175 79.432C28.3175 77.8107 28.6162 76.1893 29.2135 74.568C29.8108 72.904 30.6002 71.3893 31.5815 70.024C32.5628 68.6587 34.1202 67.5493 36.2535 66.696C38.3868 65.8 40.2855 65.352 41.9495 65.352C43.6562 65.352 45.3842 65.5867 47.1335 66.056C48.9255 66.5253 50.1628 67.2507 50.8455 68.232C52.4242 70.4507 53.2135 72.6267 53.2135 74.76C53.2135 75.912 52.9575 76.8933 52.4455 77.704C51.9762 78.5147 51.2935 79.3893 50.3975 80.328C49.6722 81.096 48.5202 81.608 46.9415 81.864C45.4055 82.12 43.8695 82.248 42.3335 82.248C41.3522 82.248 40.1575 82.1627 38.7495 81.992C37.3415 81.7787 35.9762 81.5227 34.6535 81.224C34.7388 82.0773 34.9522 82.9093 35.2935 83.72C35.6348 84.5307 36.0402 85.1493 36.5095 85.576C37.3628 86.3867 38.2375 86.8987 39.1335 87.112C40.0722 87.3253 41.2668 87.432 42.7175 87.432C44.2535 87.432 45.6828 87.176 47.0055 86.664C48.0722 86.28 48.9468 86.088 49.6295 86.088C50.4402 86.088 51.0588 86.344 51.4855 86.856C51.9122 87.3253 52.1255 87.944 52.1255 88.712C52.1255 89.7787 51.5068 90.6533 50.2695 91.336C49.0322 92.0187 47.6028 92.5307 45.9815 92.872C44.4028 93.1707 43.1228 93.32 42.1415 93.32C40.1362 93.32 38.1948 92.9573 36.3175 92.232C34.4402 91.5067 32.8828 90.4827 31.6455 89.16C30.6215 87.9653 29.8108 86.536 29.2135 84.872C28.6162 83.1653 28.3175 81.352 28.3175 79.432ZM42.2695 70.792C41.3308 70.792 40.3922 70.984 39.4535 71.368C38.5148 71.7093 37.7468 72.2 37.1495 72.84C36.3815 73.6507 35.8482 74.312 35.5495 74.824C35.2935 75.2933 35.1228 75.9547 35.0375 76.808C36.1042 77.1493 38.3228 77.32 41.6935 77.32C43.5282 77.32 44.9362 77.0427 45.9175 76.488C46.9415 75.9333 47.4535 75.208 47.4535 74.312C47.4535 73.416 46.8988 72.6053 45.7895 71.88C44.6802 71.1547 43.5068 70.792 42.2695 70.792ZM83.6495 93.256C82.1988 93.256 81.0895 93.0427 80.3215 92.616C79.5535 92.1467 78.7215 91.2933 77.8255 90.056C76.7162 91.0373 75.0522 91.8267 72.8335 92.424C70.6575 93.0213 68.7802 93.32 67.2015 93.32C64.5988 93.32 62.4868 92.616 60.8655 91.208C59.2868 89.7573 58.4975 87.6453 58.4975 84.872C58.4975 83.6773 58.8175 82.5893 59.4575 81.608C60.1402 80.584 61.0148 79.688 62.0815 78.92C63.2762 78.1093 64.6842 77.4693 66.3055 77C67.9695 76.5307 69.4842 76.296 70.8495 76.296C73.1535 76.296 75.2015 76.5093 76.9935 76.936V76.872C76.9935 74.568 76.4175 72.9893 75.2655 72.136C74.1562 71.24 72.3642 70.792 69.8895 70.792C68.3108 70.792 66.9455 71.496 65.7935 72.904C65.3668 73.4587 64.4708 73.736 63.1055 73.736C62.4228 73.736 61.9108 73.4587 61.5695 72.904C61.2708 72.3067 61.1215 71.7093 61.1215 71.112C61.1215 69.8747 61.6335 68.808 62.6575 67.912C63.7242 67.016 65.0042 66.3547 66.4975 65.928C67.9908 65.4587 69.3775 65.224 70.6575 65.224C71.8948 65.224 73.3668 65.48 75.0735 65.992C76.7802 66.504 78.1668 67.1867 79.2335 68.04C80.5135 69.1493 81.4948 70.4507 82.1775 71.944C82.9028 73.3947 83.2655 74.9947 83.2655 76.744C83.2655 77.2987 83.2228 78.1307 83.1375 79.24C83.0522 80.52 83.0095 81.5653 83.0095 82.376C83.0095 82.76 82.9668 83.2507 82.8815 83.848C82.7962 84.616 82.7535 85.256 82.7535 85.768C82.7535 86.3227 82.9242 86.856 83.2655 87.368C83.6068 87.88 84.0762 88.3067 84.6735 88.648C85.2282 88.9467 85.5908 89.2667 85.7615 89.608C85.9322 89.9493 86.0175 90.3333 86.0175 90.76C86.0175 91.1867 85.7402 91.72 85.1855 92.36C84.6735 92.9573 84.1615 93.256 83.6495 93.256ZM70.8495 81.032C69.1855 81.032 67.7135 81.352 66.4335 81.992C65.1535 82.632 64.5135 83.7627 64.5135 85.384C64.5135 86.1947 64.7908 86.8773 65.3455 87.432C65.9428 87.9867 66.5828 88.264 67.2655 88.264C69.1002 88.264 70.6362 88.072 71.8735 87.688C73.1108 87.304 74.6042 86.6 76.3535 85.576C76.5668 84.8933 76.6948 83.9333 76.7375 82.696C76.7375 82.2267 76.7588 81.864 76.8015 81.608C74.4975 81.224 72.5135 81.032 70.8495 81.032ZM110.734 73.608C110.094 73.608 109.539 73.4587 109.07 73.16C108.643 72.8187 108.195 72.3707 107.726 71.816C107.256 71.2613 106.744 70.8987 106.19 70.728C105.678 70.5573 105.08 70.472 104.398 70.472C103.16 70.472 101.944 70.856 100.75 71.624C99.5975 72.3493 98.6375 73.3733 97.8695 74.696C97.1442 76.0187 96.7815 77.4907 96.7815 79.112C96.7815 80.904 97.1228 82.3973 97.8055 83.592C98.5308 84.7867 99.6615 85.832 101.198 86.728C101.752 87.0267 102.392 87.2613 103.118 87.432C103.886 87.6027 104.547 87.688 105.102 87.688C106.424 87.688 108.131 87.112 110.222 85.96C110.392 85.8747 110.712 85.7253 111.182 85.512C111.694 85.256 112.078 85.128 112.334 85.128C112.803 85.128 113.336 85.3627 113.934 85.832C114.531 86.2587 114.83 86.792 114.83 87.432C114.83 88.712 114.275 89.8 113.166 90.696C112.099 91.592 110.755 92.2533 109.134 92.68C107.512 93.1067 105.912 93.32 104.333 93.32C101.816 93.32 99.4695 92.744 97.2935 91.592C95.1175 90.44 93.3895 88.84 92.1095 86.792C90.8295 84.744 90.1895 82.44 90.1895 79.88C90.1895 77.1067 90.8082 74.6107 92.0455 72.392C93.2828 70.1307 94.9468 68.36 97.0375 67.08C99.1708 65.7573 101.475 65.096 103.95 65.096C106.339 65.096 108.536 65.5653 110.542 66.504C112.59 67.4427 113.614 68.872 113.614 70.792C113.614 72.6693 112.654 73.608 110.734 73.608ZM120.083 70.856C119.485 70.7707 118.995 70.5147 118.611 70.088C118.269 69.6613 118.099 69.1493 118.099 68.552C118.099 68.2533 118.163 67.9333 118.291 67.592C118.461 67.2507 118.696 66.952 118.995 66.696C119.549 66.2267 120.296 65.7787 121.235 65.352C122.216 64.968 122.92 64.4987 123.347 63.944C123.773 63.3893 123.987 62.344 123.987 60.808C123.987 60.168 123.944 59.6133 123.859 59.144C123.816 58.6747 123.795 58.312 123.795 58.056C123.795 57.1173 124.136 56.4133 124.819 55.944C125.501 55.4747 126.291 55.24 127.187 55.24C128.296 55.24 129.043 55.5173 129.427 56.072C129.853 56.6267 130.067 57.6507 130.067 59.144C130.067 60.5947 130.003 61.8533 129.875 62.92C129.747 63.944 129.469 64.8613 129.043 65.672C129.64 65.672 130.621 65.6293 131.987 65.544C133.864 65.4587 135.165 65.416 135.891 65.416C136.616 65.416 137.256 65.608 137.811 65.992C138.365 66.3333 138.643 66.824 138.643 67.464C138.643 68.36 138.451 69.0213 138.067 69.448C137.683 69.8747 137.128 70.152 136.403 70.28C134.653 70.7493 132.179 71.0267 128.979 71.112C128.893 72.776 128.851 74.5893 128.851 76.552C128.851 79.8373 129.043 82.3547 129.427 84.104C129.683 85.4693 130.109 86.472 130.707 87.112C131.347 87.7093 132.285 88.008 133.523 88.008C134.163 88.008 134.675 87.9227 135.059 87.752C135.485 87.5813 135.72 87.4747 135.763 87.432C136.275 87.1333 136.744 86.984 137.171 86.984C137.768 86.984 138.195 87.176 138.451 87.56C138.749 87.944 138.899 88.456 138.899 89.096C138.899 90.2907 138.259 91.2933 136.979 92.104C135.699 92.872 134.056 93.256 132.051 93.256C129.789 93.256 127.869 92.5947 126.291 91.272C124.755 89.9067 123.837 88.1147 123.539 85.896C123.112 83.8907 122.899 81.0747 122.899 77.448C122.899 75.8693 122.984 73.7573 123.155 71.112L120.083 70.856Z" fill="#11C690"/>
<path d="M14.988 112.9C15.18 113.02 15.552 113.248 16.104 113.584C16.68 113.896 17.064 114.268 17.256 114.7C17.448 115.132 17.544 115.732 17.544 116.5C17.544 117.364 17.292 118.132 16.788 118.804C16.284 119.452 15.636 119.956 14.844 120.316C14.268 120.58 13.56 120.784 12.72 120.928C11.904 121.072 11.256 121.144 10.776 121.144C10.296 121.144 9.672 121.072 8.904 120.928C8.16 120.784 7.644 120.652 7.356 120.532C6.612 120.1 5.964 119.572 5.412 118.948C4.884 118.324 4.62 117.688 4.62 117.04C4.62 116.56 4.776 116.188 5.088 115.924C5.4 115.636 5.808 115.492 6.312 115.492C6.552 115.492 6.804 115.588 7.068 115.78C7.332 115.948 7.512 116.128 7.608 116.32C7.872 116.944 8.316 117.412 8.94 117.724C9.564 118.036 10.2 118.192 10.848 118.192C11.688 118.192 12.468 118.06 13.188 117.796C13.908 117.508 14.268 117.124 14.268 116.644C14.268 116.428 14.208 116.26 14.088 116.14C13.992 115.996 13.848 115.852 13.656 115.708C13.32 115.468 12.816 115.276 12.144 115.132C11.472 114.964 11.04 114.856 10.848 114.808C9.864 114.592 8.904 114.268 7.968 113.836C7.032 113.38 6.288 112.84 5.736 112.216C5.184 111.592 4.908 110.788 4.908 109.804C4.908 109.156 5.148 108.484 5.628 107.788C6.108 107.068 6.648 106.564 7.248 106.276C7.68 106.108 8.4 105.928 9.408 105.736C10.44 105.544 11.136 105.448 11.496 105.448C12.048 105.448 12.648 105.508 13.296 105.628C13.944 105.724 14.436 105.892 14.772 106.132C15.42 106.516 15.948 106.924 16.356 107.356C16.764 107.764 16.968 108.232 16.968 108.76C16.968 109.024 16.908 109.312 16.788 109.624C16.668 109.912 16.524 110.092 16.356 110.164C15.996 110.332 15.576 110.416 15.096 110.416C14.88 110.416 14.7 110.356 14.556 110.236C14.436 110.116 14.268 109.924 14.052 109.66C13.788 109.252 13.536 109.012 13.296 108.94C13.008 108.868 12.588 108.784 12.036 108.688C11.484 108.568 11.112 108.508 10.92 108.508C10.368 108.508 9.792 108.664 9.192 108.976C8.616 109.288 8.328 109.648 8.328 110.056C8.328 110.272 8.412 110.44 8.58 110.56C8.772 110.68 8.964 110.788 9.156 110.884C9.372 110.98 9.516 111.04 9.588 111.064C10.092 111.304 10.644 111.508 11.244 111.676C11.868 111.844 12.252 111.952 12.396 112C13.692 112.312 14.556 112.612 14.988 112.9ZM35.6273 121.108C33.8273 121.108 32.6153 120.412 31.9913 119.02C31.6793 118.324 31.4753 117.424 31.3793 116.32C31.2833 115.192 31.2353 113.872 31.2353 112.36V111.244C31.2353 109.516 30.6593 108.652 29.5073 108.652C28.8353 108.652 28.1633 109 27.4913 109.696C26.8193 110.368 26.2553 111.268 25.7993 112.396C25.3673 113.5 25.1513 114.652 25.1513 115.852C25.1513 116.644 25.1873 117.364 25.2593 118.012C25.3073 118.828 25.3313 119.452 25.3313 119.884C25.3313 120.7 24.7673 121.108 23.6393 121.108C23.0873 121.108 22.5953 120.988 22.1633 120.748C21.7553 120.508 21.5513 120.196 21.5513 119.812C21.6473 118.588 21.6953 117.076 21.6953 115.276L21.6593 110.524C21.6593 109.756 21.5993 106.912 21.4793 101.992L21.3713 98.68C21.3713 98.152 21.6113 97.696 22.0913 97.312C22.5713 96.904 23.1113 96.7 23.7113 96.7C24.2393 96.7 24.6233 96.82 24.8633 97.06C25.1033 97.3 25.2233 97.672 25.2233 98.176C25.2233 98.8 25.2113 99.532 25.1873 100.372C25.1633 101.188 25.1393 101.812 25.1153 102.244C25.0433 103.468 25.0073 104.692 25.0073 105.916C25.0073 107.116 24.9833 108.064 24.9353 108.76C25.6553 107.704 26.4713 106.924 27.3833 106.42C28.3193 105.892 29.4113 105.628 30.6593 105.628C31.5713 105.628 32.4113 106.036 33.1793 106.852C33.9713 107.644 34.4513 108.556 34.6193 109.588C34.6673 110.116 34.6913 110.896 34.6913 111.928L34.6553 114.556C34.6553 114.964 34.6793 115.6 34.7273 116.464C34.7513 116.872 34.8833 117.304 35.1233 117.76C35.3873 118.216 35.6873 118.552 36.0233 118.768C36.3353 118.96 36.5393 119.152 36.6353 119.344C36.7313 119.536 36.7793 119.752 36.7793 119.992C36.7793 120.232 36.6713 120.484 36.4553 120.748C36.2393 120.988 35.9633 121.108 35.6273 121.108ZM53.582 109.444C53.774 109.78 53.93 110.272 54.05 110.92C54.17 111.544 54.23 112.108 54.23 112.612C54.23 113.548 54.026 114.88 53.618 116.608C51.962 119.632 49.514 121.144 46.274 121.144C45.074 121.144 43.85 120.748 42.602 119.956C41.354 119.164 40.49 118.252 40.01 117.22C39.362 115.156 39.038 113.848 39.038 113.296C39.038 112.336 39.242 111.316 39.65 110.236C40.082 109.156 40.622 108.22 41.27 107.428C41.678 106.876 42.41 106.408 43.466 106.024C44.522 105.616 45.482 105.412 46.346 105.412C48.026 105.412 49.454 105.736 50.63 106.384C51.806 107.008 52.79 108.028 53.582 109.444ZM50.45 115.24C50.57 114.928 50.63 114.124 50.63 112.828C50.63 112.132 50.498 111.448 50.234 110.776C49.994 110.104 49.634 109.528 49.154 109.048C49.106 109 48.974 108.928 48.758 108.832C48.542 108.712 48.242 108.604 47.858 108.508C47.498 108.388 47.078 108.328 46.598 108.328C45.254 108.328 44.27 108.868 43.646 109.948C43.022 111.028 42.71 112.252 42.71 113.62C42.71 113.86 42.77 114.316 42.89 114.988C43.034 115.66 43.154 116.08 43.25 116.248C43.322 116.416 43.502 116.656 43.79 116.968C44.102 117.256 44.474 117.52 44.906 117.76C45.362 117.976 45.83 118.084 46.31 118.084C47.39 118.084 48.254 117.832 48.902 117.328C49.55 116.8 50.066 116.104 50.45 115.24ZM58.5758 108.472C58.3598 108.472 58.1558 108.496 57.9638 108.544C57.7718 108.568 57.5798 108.58 57.3878 108.58C57.1238 108.58 56.8718 108.46 56.6318 108.22C56.4158 107.98 56.3078 107.764 56.3078 107.572C56.3078 106.948 56.6198 106.468 57.2438 106.132C57.8678 105.772 58.5038 105.592 59.1518 105.592C59.7038 105.592 60.2678 105.784 60.8438 106.168C61.4438 106.528 61.8878 106.996 62.1758 107.572C62.7998 106.828 63.5678 106.288 64.4798 105.952C65.3918 105.616 66.3398 105.448 67.3238 105.448C68.4278 105.448 69.4478 105.796 70.3838 106.492C71.3438 107.188 72.0998 108.076 72.6518 109.156C73.2038 110.212 73.4798 111.268 73.4798 112.324C73.4798 113.356 73.3718 114.28 73.1558 115.096C72.9398 115.888 72.5558 116.692 72.0038 117.508C71.3798 118.372 70.5398 119.08 69.4838 119.632C68.4518 120.184 67.2158 120.46 65.7758 120.46C65.3918 120.46 64.9238 120.364 64.3718 120.172C63.8198 119.956 63.3638 119.728 63.0038 119.488C62.8358 121.12 62.7518 122.536 62.7518 123.736C62.7518 124.456 62.7878 125.14 62.8598 125.788C62.9078 126.556 62.9318 127.108 62.9318 127.444C62.9318 127.972 62.7518 128.356 62.3918 128.596C62.0318 128.86 61.6358 128.992 61.2038 128.992C60.3398 128.992 59.7638 128.752 59.4758 128.272C59.2118 127.816 59.0798 127.156 59.0798 126.292C59.1758 124.228 59.2958 122.32 59.4398 120.568C59.5838 118.408 59.6558 115.072 59.6558 110.56C59.6558 110.128 59.5718 109.672 59.4038 109.192C59.2358 108.712 58.9598 108.472 58.5758 108.472ZM63.1478 115.924C63.2678 116.38 63.6038 116.764 64.1558 117.076C64.7318 117.364 65.2478 117.508 65.7038 117.508C67.0718 117.508 68.0918 117.136 68.7638 116.392C69.2678 115.864 69.5918 115.348 69.7358 114.844C69.9038 114.34 69.9878 113.536 69.9878 112.432C69.9878 111.568 69.8198 110.848 69.4838 110.272C69.1478 109.672 68.7398 109.24 68.2598 108.976C67.7798 108.688 67.3238 108.544 66.8918 108.544C65.9078 108.544 65.1038 108.844 64.4798 109.444C63.8798 110.02 63.4958 110.812 63.3278 111.82C63.2078 112.612 63.1478 113.98 63.1478 115.924ZM77.6305 108.472C77.4145 108.472 77.2105 108.496 77.0185 108.544C76.8265 108.568 76.6345 108.58 76.4425 108.58C76.1785 108.58 75.9265 108.46 75.6865 108.22C75.4705 107.98 75.3625 107.764 75.3625 107.572C75.3625 106.948 75.6745 106.468 76.2985 106.132C76.9225 105.772 77.5585 105.592 78.2065 105.592C78.7585 105.592 79.3225 105.784 79.8985 106.168C80.4985 106.528 80.9425 106.996 81.2305 107.572C81.8545 106.828 82.6225 106.288 83.5345 105.952C84.4465 105.616 85.3945 105.448 86.3785 105.448C87.4825 105.448 88.5025 105.796 89.4385 106.492C90.3985 107.188 91.1545 108.076 91.7065 109.156C92.2585 110.212 92.5345 111.268 92.5345 112.324C92.5345 113.356 92.4265 114.28 92.2105 115.096C91.9945 115.888 91.6105 116.692 91.0585 117.508C90.4345 118.372 89.5945 119.08 88.5385 119.632C87.5065 120.184 86.2705 120.46 84.8305 120.46C84.4465 120.46 83.9785 120.364 83.4265 120.172C82.8745 119.956 82.4185 119.728 82.0585 119.488C81.8905 121.12 81.8065 122.536 81.8065 123.736C81.8065 124.456 81.8425 125.14 81.9145 125.788C81.9625 126.556 81.9865 127.108 81.9865 127.444C81.9865 127.972 81.8065 128.356 81.4465 128.596C81.0865 128.86 80.6905 128.992 80.2585 128.992C79.3945 128.992 78.8185 128.752 78.5305 128.272C78.2665 127.816 78.1345 127.156 78.1345 126.292C78.2305 124.228 78.3505 122.32 78.4945 120.568C78.6385 118.408 78.7105 115.072 78.7105 110.56C78.7105 110.128 78.6265 109.672 78.4585 109.192C78.2905 108.712 78.0145 108.472 77.6305 108.472ZM82.2025 115.924C82.3225 116.38 82.6585 116.764 83.2105 117.076C83.7865 117.364 84.3025 117.508 84.7585 117.508C86.1265 117.508 87.1465 117.136 87.8185 116.392C88.3225 115.864 88.6465 115.348 88.7905 114.844C88.9585 114.34 89.0425 113.536 89.0425 112.432C89.0425 111.568 88.8745 110.848 88.5385 110.272C88.2025 109.672 87.7945 109.24 87.3145 108.976C86.8345 108.688 86.3785 108.544 85.9465 108.544C84.9625 108.544 84.1585 108.844 83.5345 109.444C82.9345 110.02 82.5505 110.812 82.3825 111.82C82.2625 112.612 82.2025 113.98 82.2025 115.924ZM97.6932 97.888C98.5332 97.96 99.2652 98.188 99.8892 98.572C100.513 98.932 100.825 99.484 100.825 100.228C100.825 100.78 100.561 101.224 100.033 101.56C99.5292 101.872 98.9172 102.028 98.1972 102.028C97.5012 102.028 97.0212 101.848 96.7572 101.488C96.4932 101.128 96.3612 100.756 96.3612 100.372C96.3612 99.652 96.4332 99.052 96.5772 98.572C96.7452 98.092 97.1172 97.864 97.6932 97.888ZM100.573 113.836V114.88C100.573 115.816 100.597 116.704 100.645 117.544C100.717 118.36 100.801 119.188 100.897 120.028C100.897 120.316 100.729 120.58 100.393 120.82C100.057 121.036 99.7452 121.144 99.4572 121.144C99.0012 121.144 98.5332 121.06 98.0532 120.892C97.5972 120.7 97.3212 120.472 97.2252 120.208C97.0812 119.44 97.0092 118.756 97.0092 118.156C97.0092 116.188 96.9492 113.98 96.8292 111.532C96.7332 109.372 96.6852 107.86 96.6852 106.996C96.6852 106.564 96.9012 106.192 97.3332 105.88C97.7652 105.568 98.2212 105.412 98.7012 105.412C99.3972 105.412 99.8772 105.568 100.141 105.88C100.429 106.192 100.573 106.684 100.573 107.356V113.836ZM104.78 108.328C104.588 108.184 104.432 108.04 104.312 107.896C104.192 107.728 104.132 107.44 104.132 107.032C104.132 106.576 104.288 106.228 104.6 105.988C104.936 105.724 105.32 105.592 105.752 105.592C106.592 105.592 107.312 105.808 107.912 106.24C108.536 106.672 108.992 107.272 109.28 108.04C109.808 107.056 110.48 106.384 111.296 106.024C112.112 105.64 113.24 105.448 114.68 105.448C115.256 105.448 115.844 105.628 116.444 105.988C117.068 106.324 117.632 106.744 118.136 107.248C118.544 107.776 118.892 108.436 119.18 109.228C119.468 109.996 119.612 110.692 119.612 111.316C119.612 111.676 119.588 112.264 119.54 113.08C119.492 113.944 119.468 114.628 119.468 115.132C119.468 116.812 119.792 117.844 120.44 118.228C120.536 118.276 120.716 118.336 120.98 118.408C121.244 118.48 121.436 118.552 121.556 118.624C121.7 118.696 121.772 118.804 121.772 118.948C121.796 119.524 121.58 120.004 121.124 120.388C120.692 120.748 120.164 120.928 119.54 120.928C118.604 120.928 117.872 120.676 117.344 120.172C116.816 119.668 116.444 118.9 116.228 117.868C116.108 117.484 116.048 116.92 116.048 116.176C116.048 115.768 116.072 115.108 116.12 114.196C116.192 113.476 116.228 112.708 116.228 111.892C116.228 111.052 115.988 110.32 115.508 109.696C115.028 109.048 114.368 108.724 113.528 108.724C113.024 108.724 112.496 108.88 111.944 109.192C111.392 109.48 111.008 109.84 110.792 110.272C110.432 111.016 110.192 111.772 110.072 112.54C109.784 114.028 109.64 115.456 109.64 116.824C109.64 117.16 109.664 117.808 109.712 118.768C109.712 118.84 109.712 119.02 109.712 119.308C109.712 119.572 109.676 119.824 109.604 120.064C109.556 120.304 109.46 120.52 109.316 120.712C109.22 120.808 109.04 120.904 108.776 121C108.512 121.096 108.284 121.144 108.092 121.144C107.756 121.144 107.336 121 106.832 120.712C106.328 120.424 106.028 120.1 105.932 119.74L105.896 119.236C105.896 119.044 105.92 118.756 105.968 118.372C106.256 116.692 106.4 115.228 106.4 113.98C106.4 113.428 106.388 113.008 106.364 112.72L106.328 111.064C106.328 110.56 106.184 110.08 105.896 109.624C105.608 109.144 105.236 108.712 104.78 108.328ZM126.963 120.46C126.795 120.1 126.711 119.68 126.711 119.2C126.711 118.744 127.047 118.06 127.719 117.148C126.567 116.764 125.655 116.08 124.983 115.096C124.335 114.112 124.011 112.96 124.011 111.64C124.011 110.776 124.215 109.996 124.623 109.3C125.031 108.58 125.595 107.896 126.315 107.248C127.539 106.144 129.231 105.592 131.391 105.592C132.255 105.592 133.323 105.784 134.595 106.168C136.107 104.872 137.439 104.224 138.591 104.224C139.311 104.224 139.827 104.368 140.139 104.656C140.475 104.92 140.643 105.388 140.643 106.06C140.643 106.324 140.535 106.576 140.319 106.816C140.127 107.032 139.875 107.14 139.563 107.14L138.267 107.104C137.451 107.104 136.863 107.26 136.503 107.572C136.959 108.124 137.331 108.832 137.619 109.696C137.931 110.56 138.087 111.544 138.087 112.648C138.087 114.112 137.079 115.48 135.063 116.752C133.815 117.424 132.363 117.772 130.707 117.796C130.515 117.988 130.347 118.168 130.203 118.336C130.083 118.48 130.023 118.6 130.023 118.696C130.023 118.96 130.251 119.164 130.707 119.308C131.163 119.452 131.859 119.56 132.795 119.632C133.491 119.68 134.271 119.836 135.135 120.1C136.023 120.34 136.719 120.616 137.223 120.928C137.847 121.384 138.279 121.876 138.519 122.404C138.783 122.932 138.915 123.592 138.915 124.384C138.915 125.416 138.435 126.28 137.475 126.976C136.539 127.696 135.435 128.224 134.163 128.56C132.891 128.896 131.775 129.064 130.815 129.064C129.663 129.064 128.679 128.92 127.863 128.632C127.071 128.368 126.315 127.996 125.595 127.516C125.091 127.156 124.695 126.7 124.407 126.148C124.119 125.596 123.975 125.02 123.975 124.42C123.975 123.94 124.335 123.292 125.055 122.476C125.799 121.66 126.519 121.096 127.215 120.784C127.143 120.712 127.059 120.604 126.963 120.46ZM130.599 114.844C131.727 114.844 132.675 114.544 133.443 113.944C134.211 113.32 134.595 112.468 134.595 111.388C134.595 110.524 134.343 109.84 133.839 109.336C133.335 108.808 132.627 108.544 131.715 108.544C129.819 108.544 128.583 108.964 128.007 109.804C127.863 109.996 127.719 110.368 127.575 110.92C127.431 111.448 127.359 111.856 127.359 112.144C127.359 112.552 127.503 112.972 127.791 113.404C128.103 113.812 128.511 114.16 129.015 114.448C129.519 114.712 130.047 114.844 130.599 114.844ZM127.359 124.672C127.359 125.08 127.731 125.428 128.475 125.716C129.243 126.028 130.059 126.184 130.923 126.184C131.883 126.184 132.867 126.004 133.875 125.644C134.907 125.308 135.423 124.852 135.423 124.276C135.423 123.436 134.679 122.896 133.191 122.656C131.559 122.368 130.275 122.104 129.339 121.864C129.243 122.2 128.919 122.632 128.367 123.16C128.007 123.52 127.743 123.796 127.575 123.988C127.431 124.204 127.359 124.432 127.359 124.672Z" fill="#056D4E"/>
<path d="M54 5.33337L46 16V53.3334C46 54.7479 46.5619 56.1044 47.5621 57.1046C48.5623 58.1048 49.9188 58.6667 51.3333 58.6667H88.6667C90.0812 58.6667 91.4377 58.1048 92.4379 57.1046C93.4381 56.1044 94 54.7479 94 53.3334V16L86 5.33337H54Z" stroke="#11C690" stroke-width="4" stroke-linecap="round" stroke-linejoin="round"/>
<path d="M46 16H94" stroke="#11C690" stroke-width="4" stroke-linecap="round" stroke-linejoin="round"/>
<path d="M80.6668 26.6666C80.6668 29.4956 79.543 32.2087 77.5426 34.2091C75.5422 36.2095 72.8291 37.3333 70.0002 37.3333C67.1712 37.3333 64.4581 36.2095 62.4577 34.2091C60.4573 32.2087 59.3335 29.4956 59.3335 26.6666" stroke="#11C690" stroke-width="4" stroke-linecap="round" stroke-linejoin="round"/>
</svg>
